<svg xmlns="http://www.w3.org/2000/svg" xmlns:xlink="http://www.w3.org/1999/xlink" width="20" height="20" preserveAspectRatio="xMidYMid meet" viewBox="0 0 20 20" style="-ms-transform: rotate(360deg); -webkit-transform: rotate(360deg); transform: rotate(360deg);"><g fill="none"><path d="M2 10a8 8 0 1 1 16 0a8 8 0 0 1-16 0zm4.646-.854a.5.5 0 1 0 .708.708L9.5 7.707V13.5a.5.5 0 0 0 1 0V7.707l2.146 2.147a.5.5 0 0 0 .708-.708l-3-3a.5.5 0 0 0-.708 0l-3 3z" fill="#42db75"/></g><rect x="0" y="0" width="20" height="20" fill="rgba(0, 0, 0, 0)" /></svg>