<svg xmlns="http://www.w3.org/2000/svg" xmlns:xlink="http://www.w3.org/1999/xlink" width="64" height="64" preserveAspectRatio="xMidYMid meet" viewBox="0 0 48 48" style="-ms-transform: rotate(360deg); -webkit-transform: rotate(360deg); transform: rotate(360deg);"><g fill="none"><path d="M12.25 39.5h23.5a1.25 1.25 0 0 1 .128 2.493L35.75 42h-23.5a1.25 1.25 0 0 1-.128-2.493l.128-.007h23.5h-23.5zM23.622 6.006L23.75 6c.647 0 1.18.492 1.244 1.122L25 7.25v24.29l5.647-5.646a1.25 1.25 0 1 1 1.767 1.768l-7.778 7.778a1.25 1.25 0 0 1-1.767 0l-7.779-7.778a1.25 1.25 0 0 1 1.768-1.768l5.642 5.642V7.25c0-.647.492-1.18 1.122-1.244L23.75 6l-.128.006z" fill="#2f3542"/></g><rect x="0" y="0" width="48" height="48" fill="rgba(0, 0, 0, 0)" /></svg>