<svg xmlns="http://www.w3.org/2000/svg" xmlns:xlink="http://www.w3.org/1999/xlink" width="20" height="20" preserveAspectRatio="xMidYMid meet" viewBox="0 0 20 20" style="-ms-transform: rotate(360deg); -webkit-transform: rotate(360deg); transform: rotate(360deg);"><g fill="none"><path d="M6.646 9.146l3-3a.5.5 0 0 1 .708 0l3 3a.5.5 0 0 1-.708.708L10.5 7.707V13.5a.5.5 0 0 1-1 0V7.707L7.354 9.854a.5.5 0 0 1-.708-.708z" fill="#2f3542"/><path d="M10 2a8 8 0 1 0 0 16a8 8 0 0 0 0-16zm-7 8a7 7 0 1 1 14 0a7 7 0 0 1-14 0z" fill="#2f3542"/></g><rect x="0" y="0" width="20" height="20" fill="rgba(0, 0, 0, 0)" /></svg>