<svg style="opacity: .4;" xmlns="http://www.w3.org/2000/svg" version="1.1" xmlns:xlink="http://www.w3.org/1999/xlink" xmlns:svgjs="http://svgjs.com/svgjs" width="4000" height="4000" preserveAspectRatio="none" viewBox="0 0 4000 4000">
    <g mask="url(&quot;#SvgjsMask2532&quot;)" fill="none">
        <rect width="4000" height="4000" x="0" y="0" fill="rgba(241, 242, 246, 1)"></rect>
        <use xlink:href="#SvgjsSymbol2539" x="0" y="0"></use>
        <use xlink:href="#SvgjsSymbol2539" x="0" y="720"></use>
        <use xlink:href="#SvgjsSymbol2539" x="0" y="1440"></use>
        <use xlink:href="#SvgjsSymbol2539" x="0" y="2160"></use>
        <use xlink:href="#SvgjsSymbol2539" x="0" y="2880"></use>
        <use xlink:href="#SvgjsSymbol2539" x="0" y="3600"></use>
        <use xlink:href="#SvgjsSymbol2539" x="720" y="0"></use>
        <use xlink:href="#SvgjsSymbol2539" x="720" y="720"></use>
        <use xlink:href="#SvgjsSymbol2539" x="720" y="1440"></use>
        <use xlink:href="#SvgjsSymbol2539" x="720" y="2160"></use>
        <use xlink:href="#SvgjsSymbol2539" x="720" y="2880"></use>
        <use xlink:href="#SvgjsSymbol2539" x="720" y="3600"></use>
        <use xlink:href="#SvgjsSymbol2539" x="1440" y="0"></use>
        <use xlink:href="#SvgjsSymbol2539" x="1440" y="720"></use>
        <use xlink:href="#SvgjsSymbol2539" x="1440" y="1440"></use>
        <use xlink:href="#SvgjsSymbol2539" x="1440" y="2160"></use>
        <use xlink:href="#SvgjsSymbol2539" x="1440" y="2880"></use>
        <use xlink:href="#SvgjsSymbol2539" x="1440" y="3600"></use>
        <use xlink:href="#SvgjsSymbol2539" x="2160" y="0"></use>
        <use xlink:href="#SvgjsSymbol2539" x="2160" y="720"></use>
        <use xlink:href="#SvgjsSymbol2539" x="2160" y="1440"></use>
        <use xlink:href="#SvgjsSymbol2539" x="2160" y="2160"></use>
        <use xlink:href="#SvgjsSymbol2539" x="2160" y="2880"></use>
        <use xlink:href="#SvgjsSymbol2539" x="2160" y="3600"></use>
        <use xlink:href="#SvgjsSymbol2539" x="2880" y="0"></use>
        <use xlink:href="#SvgjsSymbol2539" x="2880" y="720"></use>
        <use xlink:href="#SvgjsSymbol2539" x="2880" y="1440"></use>
        <use xlink:href="#SvgjsSymbol2539" x="2880" y="2160"></use>
        <use xlink:href="#SvgjsSymbol2539" x="2880" y="2880"></use>
        <use xlink:href="#SvgjsSymbol2539" x="2880" y="3600"></use>
        <use xlink:href="#SvgjsSymbol2539" x="3600" y="0"></use>
        <use xlink:href="#SvgjsSymbol2539" x="3600" y="720"></use>
        <use xlink:href="#SvgjsSymbol2539" x="3600" y="1440"></use>
        <use xlink:href="#SvgjsSymbol2539" x="3600" y="2160"></use>
        <use xlink:href="#SvgjsSymbol2539" x="3600" y="2880"></use>
        <use xlink:href="#SvgjsSymbol2539" x="3600" y="3600"></use>
    </g>
    <defs>
        <mask id="SvgjsMask2532">
            <rect width="4000" height="4000" fill="#ffffff"></rect>
        </mask>
        <path d="M-1 0 a1 1 0 1 0 2 0 a1 1 0 1 0 -2 0z" id="SvgjsPath2533"></path>
        <path d="M-3 0 a3 3 0 1 0 6 0 a3 3 0 1 0 -6 0z" id="SvgjsPath2538"></path>
        <path d="M-5 0 a5 5 0 1 0 10 0 a5 5 0 1 0 -10 0z" id="SvgjsPath2535"></path>
        <path d="M2 -2 L-2 2z" id="SvgjsPath2534"></path>
        <path d="M6 -6 L-6 6z" id="SvgjsPath2537"></path>
        <path d="M30 -30 L-30 30z" id="SvgjsPath2536"></path>
    </defs>
    <symbol id="SvgjsSymbol2539">
        <use xlink:href="#SvgjsPath2533" x="30" y="30" stroke="rgba(255, 255, 255, 1)"></use>
        <use xlink:href="#SvgjsPath2534" x="30" y="90" stroke="rgba(75, 192, 200, 1)"></use>
        <use xlink:href="#SvgjsPath2534" x="30" y="150" stroke="rgba(255, 255, 255, 1)"></use>
        <use xlink:href="#SvgjsPath2535" x="30" y="210" stroke="rgba(47, 53, 66, 1)"></use>
        <use xlink:href="#SvgjsPath2536" x="30" y="270" stroke="rgba(47, 53, 66, 1)" stroke-width="3"></use>
        <use xlink:href="#SvgjsPath2535" x="30" y="330" stroke="rgba(75, 192, 200, 1)"></use>
        <use xlink:href="#SvgjsPath2535" x="30" y="390" stroke="rgba(255, 255, 255, 1)"></use>
        <use xlink:href="#SvgjsPath2533" x="30" y="450" stroke="rgba(47, 53, 66, 1)"></use>
        <use xlink:href="#SvgjsPath2537" x="30" y="510" stroke="rgba(255, 255, 255, 1)"></use>
        <use xlink:href="#SvgjsPath2537" x="30" y="570" stroke="rgba(75, 192, 200, 1)"></use>
        <use xlink:href="#SvgjsPath2538" x="30" y="630" stroke="rgba(255, 255, 255, 1)"></use>
        <use xlink:href="#SvgjsPath2537" x="30" y="690" stroke="rgba(75, 192, 200, 1)"></use>
        <use xlink:href="#SvgjsPath2537" x="90" y="30" stroke="rgba(47, 53, 66, 1)"></use>
        <use xlink:href="#SvgjsPath2537" x="90" y="90" stroke="rgba(255, 255, 255, 1)"></use>
        <use xlink:href="#SvgjsPath2537" x="90" y="150" stroke="rgba(75, 192, 200, 1)"></use>
        <use xlink:href="#SvgjsPath2535" x="90" y="210" stroke="rgba(255, 255, 255, 1)"></use>
        <use xlink:href="#SvgjsPath2533" x="90" y="270" stroke="rgba(255, 255, 255, 1)"></use>
        <use xlink:href="#SvgjsPath2536" x="90" y="330" stroke="rgba(47, 53, 66, 1)" stroke-width="3"></use>
        <use xlink:href="#SvgjsPath2537" x="90" y="390" stroke="rgba(47, 53, 66, 1)"></use>
        <use xlink:href="#SvgjsPath2536" x="90" y="450" stroke="rgba(255, 255, 255, 1)" stroke-width="3"></use>
        <use xlink:href="#SvgjsPath2535" x="90" y="510" stroke="rgba(75, 192, 200, 1)"></use>
        <use xlink:href="#SvgjsPath2533" x="90" y="570" stroke="rgba(75, 192, 200, 1)"></use>
        <use xlink:href="#SvgjsPath2536" x="90" y="630" stroke="rgba(75, 192, 200, 1)" stroke-width="3"></use>
        <use xlink:href="#SvgjsPath2537" x="90" y="690" stroke="rgba(255, 255, 255, 1)"></use>
        <use xlink:href="#SvgjsPath2535" x="150" y="30" stroke="rgba(255, 255, 255, 1)"></use>
        <use xlink:href="#SvgjsPath2537" x="150" y="90" stroke="rgba(255, 255, 255, 1)"></use>
        <use xlink:href="#SvgjsPath2534" x="150" y="150" stroke="rgba(255, 255, 255, 1)"></use>
        <use xlink:href="#SvgjsPath2538" x="150" y="210" stroke="rgba(47, 53, 66, 1)"></use>
        <use xlink:href="#SvgjsPath2537" x="150" y="270" stroke="rgba(47, 53, 66, 1)"></use>
        <use xlink:href="#SvgjsPath2538" x="150" y="330" stroke="rgba(75, 192, 200, 1)"></use>
        <use xlink:href="#SvgjsPath2537" x="150" y="390" stroke="rgba(75, 192, 200, 1)"></use>
        <use xlink:href="#SvgjsPath2535" x="150" y="450" stroke="rgba(255, 255, 255, 1)"></use>
        <use xlink:href="#SvgjsPath2538" x="150" y="510" stroke="rgba(255, 255, 255, 1)"></use>
        <use xlink:href="#SvgjsPath2535" x="150" y="570" stroke="rgba(75, 192, 200, 1)"></use>
        <use xlink:href="#SvgjsPath2534" x="150" y="630" stroke="rgba(47, 53, 66, 1)"></use>
        <use xlink:href="#SvgjsPath2533" x="150" y="690" stroke="rgba(47, 53, 66, 1)"></use>
        <use xlink:href="#SvgjsPath2538" x="210" y="30" stroke="rgba(255, 255, 255, 1)"></use>
        <use xlink:href="#SvgjsPath2534" x="210" y="90" stroke="rgba(75, 192, 200, 1)"></use>
        <use xlink:href="#SvgjsPath2537" x="210" y="150" stroke="rgba(47, 53, 66, 1)"></use>
        <use xlink:href="#SvgjsPath2535" x="210" y="210" stroke="rgba(47, 53, 66, 1)"></use>
        <use xlink:href="#SvgjsPath2535" x="210" y="270" stroke="rgba(75, 192, 200, 1)"></use>
        <use xlink:href="#SvgjsPath2535" x="210" y="330" stroke="rgba(47, 53, 66, 1)"></use>
        <use xlink:href="#SvgjsPath2535" x="210" y="390" stroke="rgba(255, 255, 255, 1)"></use>
        <use xlink:href="#SvgjsPath2535" x="210" y="450" stroke="rgba(75, 192, 200, 1)"></use>
        <use xlink:href="#SvgjsPath2537" x="210" y="510" stroke="rgba(47, 53, 66, 1)"></use>
        <use xlink:href="#SvgjsPath2537" x="210" y="570" stroke="rgba(47, 53, 66, 1)"></use>
        <use xlink:href="#SvgjsPath2538" x="210" y="630" stroke="rgba(255, 255, 255, 1)"></use>
        <use xlink:href="#SvgjsPath2535" x="210" y="690" stroke="rgba(75, 192, 200, 1)"></use>
        <use xlink:href="#SvgjsPath2534" x="270" y="30" stroke="rgba(75, 192, 200, 1)"></use>
        <use xlink:href="#SvgjsPath2533" x="270" y="90" stroke="rgba(255, 255, 255, 1)"></use>
        <use xlink:href="#SvgjsPath2535" x="270" y="150" stroke="rgba(255, 255, 255, 1)"></use>
        <use xlink:href="#SvgjsPath2534" x="270" y="210" stroke="rgba(255, 255, 255, 1)"></use>
        <use xlink:href="#SvgjsPath2533" x="270" y="270" stroke="rgba(75, 192, 200, 1)"></use>
        <use xlink:href="#SvgjsPath2535" x="270" y="330" stroke="rgba(47, 53, 66, 1)"></use>
        <use xlink:href="#SvgjsPath2533" x="270" y="390" stroke="rgba(255, 255, 255, 1)"></use>
        <use xlink:href="#SvgjsPath2535" x="270" y="450" stroke="rgba(75, 192, 200, 1)"></use>
        <use xlink:href="#SvgjsPath2537" x="270" y="510" stroke="rgba(255, 255, 255, 1)"></use>
        <use xlink:href="#SvgjsPath2537" x="270" y="570" stroke="rgba(47, 53, 66, 1)"></use>
        <use xlink:href="#SvgjsPath2535" x="270" y="630" stroke="rgba(47, 53, 66, 1)"></use>
        <use xlink:href="#SvgjsPath2535" x="270" y="690" stroke="rgba(47, 53, 66, 1)"></use>
        <use xlink:href="#SvgjsPath2537" x="330" y="30" stroke="rgba(255, 255, 255, 1)"></use>
        <use xlink:href="#SvgjsPath2534" x="330" y="90" stroke="rgba(47, 53, 66, 1)"></use>
        <use xlink:href="#SvgjsPath2535" x="330" y="150" stroke="rgba(75, 192, 200, 1)"></use>
        <use xlink:href="#SvgjsPath2537" x="330" y="210" stroke="rgba(75, 192, 200, 1)"></use>
        <use xlink:href="#SvgjsPath2536" x="330" y="270" stroke="rgba(47, 53, 66, 1)" stroke-width="3"></use>
        <use xlink:href="#SvgjsPath2536" x="330" y="330" stroke="rgba(255, 255, 255, 1)" stroke-width="3"></use>
        <use xlink:href="#SvgjsPath2537" x="330" y="390" stroke="rgba(75, 192, 200, 1)"></use>
        <use xlink:href="#SvgjsPath2537" x="330" y="450" stroke="rgba(75, 192, 200, 1)"></use>
        <use xlink:href="#SvgjsPath2535" x="330" y="510" stroke="rgba(47, 53, 66, 1)"></use>
        <use xlink:href="#SvgjsPath2537" x="330" y="570" stroke="rgba(75, 192, 200, 1)"></use>
        <use xlink:href="#SvgjsPath2537" x="330" y="630" stroke="rgba(255, 255, 255, 1)"></use>
        <use xlink:href="#SvgjsPath2534" x="330" y="690" stroke="rgba(255, 255, 255, 1)"></use>
        <use xlink:href="#SvgjsPath2538" x="390" y="30" stroke="rgba(75, 192, 200, 1)"></use>
        <use xlink:href="#SvgjsPath2533" x="390" y="90" stroke="rgba(75, 192, 200, 1)"></use>
        <use xlink:href="#SvgjsPath2535" x="390" y="150" stroke="rgba(75, 192, 200, 1)"></use>
        <use xlink:href="#SvgjsPath2538" x="390" y="210" stroke="rgba(47, 53, 66, 1)"></use>
        <use xlink:href="#SvgjsPath2537" x="390" y="270" stroke="rgba(47, 53, 66, 1)"></use>
        <use xlink:href="#SvgjsPath2534" x="390" y="330" stroke="rgba(255, 255, 255, 1)"></use>
        <use xlink:href="#SvgjsPath2537" x="390" y="390" stroke="rgba(75, 192, 200, 1)"></use>
        <use xlink:href="#SvgjsPath2534" x="390" y="450" stroke="rgba(75, 192, 200, 1)"></use>
        <use xlink:href="#SvgjsPath2535" x="390" y="510" stroke="rgba(75, 192, 200, 1)"></use>
        <use xlink:href="#SvgjsPath2538" x="390" y="570" stroke="rgba(255, 255, 255, 1)"></use>
        <use xlink:href="#SvgjsPath2535" x="390" y="630" stroke="rgba(75, 192, 200, 1)"></use>
        <use xlink:href="#SvgjsPath2535" x="390" y="690" stroke="rgba(47, 53, 66, 1)"></use>
        <use xlink:href="#SvgjsPath2537" x="450" y="30" stroke="rgba(255, 255, 255, 1)"></use>
        <use xlink:href="#SvgjsPath2533" x="450" y="90" stroke="rgba(47, 53, 66, 1)"></use>
        <use xlink:href="#SvgjsPath2534" x="450" y="150" stroke="rgba(47, 53, 66, 1)"></use>
        <use xlink:href="#SvgjsPath2535" x="450" y="210" stroke="rgba(75, 192, 200, 1)"></use>
        <use xlink:href="#SvgjsPath2538" x="450" y="270" stroke="rgba(75, 192, 200, 1)"></use>
        <use xlink:href="#SvgjsPath2535" x="450" y="330" stroke="rgba(47, 53, 66, 1)"></use>
        <use xlink:href="#SvgjsPath2537" x="450" y="390" stroke="rgba(255, 255, 255, 1)"></use>
        <use xlink:href="#SvgjsPath2535" x="450" y="450" stroke="rgba(75, 192, 200, 1)"></use>
        <use xlink:href="#SvgjsPath2535" x="450" y="510" stroke="rgba(47, 53, 66, 1)"></use>
        <use xlink:href="#SvgjsPath2538" x="450" y="570" stroke="rgba(47, 53, 66, 1)"></use>
        <use xlink:href="#SvgjsPath2533" x="450" y="630" stroke="rgba(47, 53, 66, 1)"></use>
        <use xlink:href="#SvgjsPath2537" x="450" y="690" stroke="rgba(75, 192, 200, 1)"></use>
        <use xlink:href="#SvgjsPath2537" x="510" y="30" stroke="rgba(47, 53, 66, 1)"></use>
        <use xlink:href="#SvgjsPath2534" x="510" y="90" stroke="rgba(75, 192, 200, 1)"></use>
        <use xlink:href="#SvgjsPath2535" x="510" y="150" stroke="rgba(47, 53, 66, 1)"></use>
        <use xlink:href="#SvgjsPath2534" x="510" y="210" stroke="rgba(47, 53, 66, 1)"></use>
        <use xlink:href="#SvgjsPath2535" x="510" y="270" stroke="rgba(255, 255, 255, 1)"></use>
        <use xlink:href="#SvgjsPath2535" x="510" y="330" stroke="rgba(255, 255, 255, 1)"></use>
        <use xlink:href="#SvgjsPath2537" x="510" y="390" stroke="rgba(255, 255, 255, 1)"></use>
        <use xlink:href="#SvgjsPath2537" x="510" y="450" stroke="rgba(75, 192, 200, 1)"></use>
        <use xlink:href="#SvgjsPath2537" x="510" y="510" stroke="rgba(47, 53, 66, 1)"></use>
        <use xlink:href="#SvgjsPath2537" x="510" y="570" stroke="rgba(47, 53, 66, 1)"></use>
        <use xlink:href="#SvgjsPath2535" x="510" y="630" stroke="rgba(75, 192, 200, 1)"></use>
        <use xlink:href="#SvgjsPath2535" x="510" y="690" stroke="rgba(75, 192, 200, 1)"></use>
        <use xlink:href="#SvgjsPath2535" x="570" y="30" stroke="rgba(47, 53, 66, 1)"></use>
        <use xlink:href="#SvgjsPath2537" x="570" y="90" stroke="rgba(75, 192, 200, 1)"></use>
        <use xlink:href="#SvgjsPath2535" x="570" y="150" stroke="rgba(75, 192, 200, 1)"></use>
        <use xlink:href="#SvgjsPath2538" x="570" y="210" stroke="rgba(47, 53, 66, 1)"></use>
        <use xlink:href="#SvgjsPath2535" x="570" y="270" stroke="rgba(255, 255, 255, 1)"></use>
        <use xlink:href="#SvgjsPath2537" x="570" y="330" stroke="rgba(75, 192, 200, 1)"></use>
        <use xlink:href="#SvgjsPath2538" x="570" y="390" stroke="rgba(255, 255, 255, 1)"></use>
        <use xlink:href="#SvgjsPath2533" x="570" y="450" stroke="rgba(75, 192, 200, 1)"></use>
        <use xlink:href="#SvgjsPath2537" x="570" y="510" stroke="rgba(255, 255, 255, 1)"></use>
        <use xlink:href="#SvgjsPath2537" x="570" y="570" stroke="rgba(47, 53, 66, 1)"></use>
        <use xlink:href="#SvgjsPath2536" x="570" y="630" stroke="rgba(75, 192, 200, 1)" stroke-width="3"></use>
        <use xlink:href="#SvgjsPath2534" x="570" y="690" stroke="rgba(255, 255, 255, 1)"></use>
        <use xlink:href="#SvgjsPath2535" x="630" y="30" stroke="rgba(255, 255, 255, 1)"></use>
        <use xlink:href="#SvgjsPath2533" x="630" y="90" stroke="rgba(255, 255, 255, 1)"></use>
        <use xlink:href="#SvgjsPath2538" x="630" y="150" stroke="rgba(47, 53, 66, 1)"></use>
        <use xlink:href="#SvgjsPath2537" x="630" y="210" stroke="rgba(47, 53, 66, 1)"></use>
        <use xlink:href="#SvgjsPath2535" x="630" y="270" stroke="rgba(47, 53, 66, 1)"></use>
        <use xlink:href="#SvgjsPath2535" x="630" y="330" stroke="rgba(75, 192, 200, 1)"></use>
        <use xlink:href="#SvgjsPath2537" x="630" y="390" stroke="rgba(47, 53, 66, 1)"></use>
        <use xlink:href="#SvgjsPath2535" x="630" y="450" stroke="rgba(75, 192, 200, 1)"></use>
        <use xlink:href="#SvgjsPath2537" x="630" y="510" stroke="rgba(75, 192, 200, 1)"></use>
        <use xlink:href="#SvgjsPath2534" x="630" y="570" stroke="rgba(255, 255, 255, 1)"></use>
        <use xlink:href="#SvgjsPath2537" x="630" y="630" stroke="rgba(75, 192, 200, 1)"></use>
        <use xlink:href="#SvgjsPath2537" x="630" y="690" stroke="rgba(47, 53, 66, 1)"></use>
        <use xlink:href="#SvgjsPath2534" x="690" y="30" stroke="rgba(47, 53, 66, 1)"></use>
        <use xlink:href="#SvgjsPath2533" x="690" y="90" stroke="rgba(75, 192, 200, 1)"></use>
        <use xlink:href="#SvgjsPath2535" x="690" y="150" stroke="rgba(75, 192, 200, 1)"></use>
        <use xlink:href="#SvgjsPath2535" x="690" y="210" stroke="rgba(255, 255, 255, 1)"></use>
        <use xlink:href="#SvgjsPath2537" x="690" y="270" stroke="rgba(75, 192, 200, 1)"></use>
        <use xlink:href="#SvgjsPath2534" x="690" y="330" stroke="rgba(255, 255, 255, 1)"></use>
        <use xlink:href="#SvgjsPath2535" x="690" y="390" stroke="rgba(75, 192, 200, 1)"></use>
        <use xlink:href="#SvgjsPath2535" x="690" y="450" stroke="rgba(75, 192, 200, 1)"></use>
        <use xlink:href="#SvgjsPath2534" x="690" y="510" stroke="rgba(47, 53, 66, 1)"></use>
        <use xlink:href="#SvgjsPath2537" x="690" y="570" stroke="rgba(47, 53, 66, 1)"></use>
        <use xlink:href="#SvgjsPath2534" x="690" y="630" stroke="rgba(47, 53, 66, 1)"></use>
        <use xlink:href="#SvgjsPath2537" x="690" y="690" stroke="rgba(47, 53, 66, 1)"></use>
    </symbol>
</svg>