<svg xmlns="http://www.w3.org/2000/svg" xmlns:xlink="http://www.w3.org/1999/xlink" width="64" height="64" preserveAspectRatio="xMidYMid meet" viewBox="0 0 21 21" style="-ms-transform: rotate(360deg); -webkit-transform: rotate(360deg); transform: rotate(360deg);"><g fill="none" fill-rule="evenodd" stroke="#2F3542" stroke-linecap="round" stroke-linejoin="round"><path d="M17.5 14.5v-10a2 2 0 0 0-2-2h-8a2 2 0 0 0-2 2v10a2 2 0 0 0 2 2h8a2 2 0 0 0 2-2z"/><path d="M5.305 4.935l-2.004.73a2 2 0 0 0-1.195 2.563l3.42 9.397A2 2 0 0 0 8.09 18.82l5.568-2.198"/><path d="M8.5 7.5h5"/><path d="M8.5 9.5h6"/><path d="M8.5 11.5h3"/></g><rect x="0" y="0" width="21" height="21" fill="rgba(0, 0, 0, 0)" /></svg>