<svg xmlns="http://www.w3.org/2000/svg" xmlns:xlink="http://www.w3.org/1999/xlink" width="64" height="64" preserveAspectRatio="xMidYMid meet" viewBox="0 0 32 32" style="-ms-transform: rotate(360deg); -webkit-transform: rotate(360deg); transform: rotate(360deg);"><defs/><circle cx="22" cy="24" r="2" fill="#2F3542"/><path d="M29.777 23.479A8.64 8.64 0 0 0 22 18a8.64 8.64 0 0 0-7.777 5.479L14 24l.223.521A8.64 8.64 0 0 0 22 30a8.64 8.64 0 0 0 7.777-5.479L30 24zM22 28a4 4 0 1 1 4-4a4.005 4.005 0 0 1-4 4z" fill="#2F3542"/><path d="M12 28H8V4h8v6a2.006 2.006 0 0 0 2 2h6v4h2v-6a.91.91 0 0 0-.3-.7l-7-7A.909.909 0 0 0 18 2H8a2.006 2.006 0 0 0-2 2v24a2.006 2.006 0 0 0 2 2h4zm6-23.6l5.6 5.6H18z" fill="#2F3542"/><rect x="0" y="0" width="32" height="32" fill="rgba(0, 0, 0, 0)" /></svg>