<svg xmlns="http://www.w3.org/2000/svg" xmlns:xlink="http://www.w3.org/1999/xlink" width="64" height="64" preserveAspectRatio="xMidYMid meet" viewBox="0 0 24 24" style="-ms-transform: rotate(360deg); -webkit-transform: rotate(360deg); transform: rotate(360deg);"><g fill="none"><path d="M16.474 5.408l2.118 2.117m-.756-3.982L12.109 9.27a2.118 2.118 0 0 0-.58 1.082L11 13l2.648-.53c.41-.082.786-.283 1.082-.579l5.727-5.727a1.853 1.853 0 1 0-2.621-2.621z" stroke="#2F3542" stroke-width="2" stroke-linecap="round" stroke-linejoin="round"/><path d="M19 15v3a2 2 0 0 1-2 2H6a2 2 0 0 1-2-2V7a2 2 0 0 1 2-2h3" stroke="#2F3542" stroke-width="2" stroke-linecap="round" stroke-linejoin="round"/></g><rect x="0" y="0" width="24" height="24" fill="rgba(0, 0, 0, 0)" /></svg>