<svg xmlns="http://www.w3.org/2000/svg" xmlns:xlink="http://www.w3.org/1999/xlink" width="64" height="64" preserveAspectRatio="xMidYMid meet" viewBox="0 0 20 20" style="-ms-transform: rotate(360deg); -webkit-transform: rotate(360deg); transform: rotate(360deg);"><g fill="none"><path d="M6.5 11a.5.5 0 0 0-.5.5v2a.5.5 0 0 0 1 0v-.166h.333a1.167 1.167 0 0 0 0-2.334H6.5zm.833 1.334H7V12h.333a.167.167 0 0 1 0 .334z" fill="#2f3542"/><path d="M12 11.5a.5.5 0 0 1 .5-.5h1a.5.5 0 0 1 0 1H13v.335h.5a.5.5 0 1 1 0 1H13v.164a.5.5 0 0 1-1 .002V11.5z" fill="#2f3542"/><path d="M9.499 11a.5.5 0 0 0-.5.5v2a.5.5 0 0 0 .5.5H10a1.5 1.5 0 0 0 0-3H9.5zm.5 2v-1H10a.5.5 0 0 1 0 1H10z" fill="#2f3542"/><path d="M4 4a2 2 0 0 1 2-2h4.586a1.5 1.5 0 0 1 1.06.44l3.915 3.914a1.5 1.5 0 0 1 .44 1.06v1.668a1.5 1.5 0 0 1 .998 1.414v4.003A1.5 1.5 0 0 1 16 15.913V16a2 2 0 0 1-2 2H6a2 2 0 0 1-2-2v-.087a1.5 1.5 0 0 1-.999-1.414v-4.003a1.5 1.5 0 0 1 1-1.414V4zm11 4h-3.5A1.5 1.5 0 0 1 10 6.5V3H6a1 1 0 0 0-1 1v4.996h10V8zM5 15.999A1 1 0 0 0 6 17h8a1 1 0 0 0 1-1.001H5zm6-12.792V6.5a.5.5 0 0 0 .5.5h3.293L11 3.207zM4.501 9.996a.5.5 0 0 0-.5.5v4.003a.5.5 0 0 0 .5.5H15.5a.5.5 0 0 0 .5-.5v-4.003a.5.5 0 0 0-.5-.5H4.5z" fill="#2f3542"/></g><rect x="0" y="0" width="20" height="20" fill="rgba(0, 0, 0, 0)" /></svg>