<svg xmlns="http://www.w3.org/2000/svg" xmlns:xlink="http://www.w3.org/1999/xlink" width="64" height="64" preserveAspectRatio="xMidYMid meet" viewBox="0 0 256 256" style="-ms-transform: rotate(360deg); -webkit-transform: rotate(360deg); transform: rotate(360deg);"><path d="M121.199 157.948a60 60 0 1 0-66.397 0A96.214 96.214 0 0 0 9.455 192.79a8 8 0 1 0 13.083 9.21a80.017 80.017 0 0 1 130.921-.004a8 8 0 1 0 13.082-9.212a96.215 96.215 0 0 0-45.342-34.837zM44 108a44 44 0 1 1 44 44a44.05 44.05 0 0 1-44-44zm202.128 95.932a7.999 7.999 0 0 1-11.147-1.935A80.168 80.168 0 0 0 169.522 168a8 8 0 0 1 0-16a44 44 0 1 0-11.943-86.362a8 8 0 0 1-4.333-15.402a59.99 59.99 0 0 1 49.474 107.712a96.213 96.213 0 0 1 45.343 34.837a8 8 0 0 1-1.935 11.147z" fill="#2F3542"/><rect x="0" y="0" width="256" height="256" fill="rgba(0, 0, 0, 0)" /></svg>