<svg xmlns="http://www.w3.org/2000/svg" xmlns:xlink="http://www.w3.org/1999/xlink" width="64" height="64" preserveAspectRatio="xMidYMid meet" viewBox="0 0 32 32" style="-ms-transform: rotate(360deg); -webkit-transform: rotate(360deg); transform: rotate(360deg);"><path d="M16 5c-3.9 0-7 3.1-7 7a6.96 6.96 0 0 0 3.07 5.813C8.51 19.346 6 22.892 6 27h2c0-4.4 3.6-8 8-8c3.9 0 7-3.1 7-7s-3.1-7-7-7zm0 2c2.8 0 5 2.2 5 5s-2.2 5-5 5s-5-2.2-5-5s2.2-5 5-5zm8.1 11v2.1c-.6.1-1.2.4-1.7.7l-1.5-1.5l-1.4 1.4l1.5 1.5c-.4.5-.6 1.1-.7 1.8H18v2h2.1c.1.6.4 1.2.7 1.8l-1.5 1.5l1.4 1.4l1.5-1.5c.5.3 1.1.6 1.7.7V32h2v-2.1c.6-.1 1.2-.4 1.7-.7l1.5 1.5l1.4-1.4l-1.5-1.5c.4-.5.6-1.1.7-1.8H32v-2h-2.1c-.1-.6-.4-1.2-.7-1.8l1.5-1.5l-1.4-1.4l-1.5 1.5c-.5-.3-1.1-.6-1.7-.7V18h-2zm.9 4c1.7 0 3 1.3 3 3s-1.3 3-3 3s-3-1.3-3-3s1.3-3 3-3zm0 2a.872.872 0 0 0-.367.086a1.138 1.138 0 0 0-.32.227a1.138 1.138 0 0 0-.227.32A.872.872 0 0 0 24 25c0 .375.281.75.633.914A.872.872 0 0 0 25 26c.5 0 1-.5 1-1s-.5-1-1-1z" fill="#2F3542"/><rect x="0" y="0" width="32" height="32" fill="rgba(0, 0, 0, 0)" /></svg>