<?xml version="1.0" encoding="utf-8"?>
<!-- Generator: Adobe Illustrator 23.0.3, SVG Export Plug-In . SVG Version: 6.00 Build 0)  -->
<svg version="1.1" id="Capa_1" xmlns="http://www.w3.org/2000/svg" xmlns:xlink="http://www.w3.org/1999/xlink" x="0px" y="0px"
	 viewBox="0 0 511.7 511.7" style="enable-background:new 0 0 511.7 511.7;" xml:space="preserve">
<style type="text/css">
	.st0{fill:#7B48CC;}
	.st1{fill:#9D56E8;}
	.st2{fill:#FDBC4B;}
	.st3{fill:#FFDB70;}
	.st4{opacity:0.6;fill:#FCEF92;enable-background:new    ;}
	.st5{fill:#EC9922;}
	.st6{fill:#F49D35;}
</style>
<polygon class="st0" points="170.8,273 170.4,511.4 255.8,455.7 340.9,511.6 341.3,273.3 "/>
<path class="st1" d="M289.2,469.6c-0.4-7.4-7-13-14.5-13l-7.3,0c-7.4-0.2-13.4-6.3-13.4-13.7c0-7.6,6.2-13.8,13.8-13.7l20.6,0
	c6.4,0,11.6-5.2,11.5-11.5v-1c0.4-6.3-4.6-11.6-10.8-11.6l-61.6-0.1c-7.5,0-14.1-5.6-14.5-13c-0.3-7.9,5.9-14.5,13.8-14.4l57.1,0.1
	c6.4,0,11.6-5.2,11.6-11.6l-0.1-0.8v-0.2c0.1-6.7-5.4-12.2-12.1-12.2l-32,0c-7.5,0-14.1-5.6-14.5-13.1c-0.3-7.9,5.9-14.5,13.8-14.4
	l35.4,0c6.6,0,11.6-5.5,11.5-12.2c0-0.1,0-0.1,0-0.2c0-0.1,0-0.1,0-0.2c0.1-6.6-4.8-12.2-11.5-12.2l-38.2,0c-7.4,0-14-5.6-14.4-13
	c-0.3-8,5.9-14.5,13.8-14.4l94.1,0.1l-0.4,238.4l-53.4-35.1C288.6,474.5,289.4,472.2,289.2,469.6z"/>
<path class="st2" d="M442.5,186.6c0,16.1-16.2,29.8-20.2,44.6c-4.1,15.3,3,35.3-4.8,48.7c-7.9,13.6-28.8,17.4-39.8,28.5
	c-11.1,11.1-14.9,32-28.5,39.8c-13.4,7.8-33.4,0.7-48.7,4.8c-14.8,4-28.5,20.2-44.6,20.2s-29.8-16.2-44.6-20.2
	c-15.3-4.1-35.3,3-48.7-4.8c-13.6-7.9-17.4-28.8-28.5-39.8c-11.1-11.1-32-14.9-39.8-28.5c-7.8-13.4-0.7-33.4-4.8-48.7
	c-4-14.8-20.2-28.5-20.2-44.6s16.2-29.8,20.2-44.6c4.1-15.3-3-35.3,4.8-48.7C102,79.7,123,75.9,134,64.8
	c11.1-11.1,14.9-32,28.5-39.8c13.4-7.8,33.4-0.7,48.7-4.8c14.8-4,28.6-20.2,44.6-20.2s29.8,16.2,44.6,20.2c15.3,4.1,35.3-3,48.7,4.8
	c13.6,7.9,17.4,28.8,28.5,39.8c11.1,11.1,32,14.9,39.8,28.5c7.8,13.4,0.7,33.4,4.8,48.7C426.3,156.8,442.5,170.6,442.5,186.6z"/>
<path class="st3" d="M255.8,319.9c-73.5,0-133.3-59.8-133.3-133.3S182.3,53.3,255.8,53.3s133.3,59.8,133.3,133.3
	S329.4,319.9,255.8,319.9z"/>
<path class="st4" d="M389.1,186.6c0-70.9-55.7-128.9-125.6-132.9h-12.4c-8.2,0-15.5,6.1-16,14.3c-0.4,8.8,6.5,16,15.2,16l73.3,0
	c8.7,0,15.6,7.2,15.2,16c-0.4,8.2-7.8,14.4-16,14.4h-28.4c-8.2,0.2-14.8,6.9-14.8,15.2c0,8.4,6.8,15.2,15.2,15.2h43.1
	c7,0,12.8,5.8,12.7,12.8v1.1c0.5,6.9-5.1,12.8-12,12.8h-95.2c-8.3,0-15.6,6.1-16.1,14.3c-0.4,8.8,6.5,16,15.2,16h90.2
	c7,0,12.8,5.8,12.8,12.8l-0.1,0.9v0.2c0.1,7.4-6,13.5-13.4,13.5h-62.6c-8.3,0-15.6,6.1-16.1,14.4c-0.4,8.7,6.5,16,15.2,16h66.3
	c7.3,0,12.8,6.1,12.7,13.5c0,0.1,0,0.1,0,0.2s0,0.1,0,0.2c0.1,7.3-5.4,13.5-12.7,13.5h-69.3c-8.2,0-15.5,6.1-16,14.3
	c-0.4,8.8,6.5,16,15.2,16H283C343.6,304.5,389.1,250.8,389.1,186.6z"/>
<path class="st5" d="M343.7,158.8h-61.2l-18.9-58.2c-2.4-7.5-13-7.5-15.5,0l-18.9,58.2H168c-7.9,0-11.1,10.1-4.8,14.7l49.5,36
	l-18.9,58.2c-2.4,7.5,6.1,13.7,12.5,9.1l49.5-36l49.5,36c6.4,4.6,14.9-1.6,12.5-9.1L299,209.5l49.5-36
	C354.8,168.8,351.6,158.8,343.7,158.8z"/>
<ellipse transform="matrix(0.1602 -0.9871 0.9871 0.1602 13.705 389.3883)" class="st6" cx="235.7" cy="186.6" rx="22.4" ry="22.4"/>
</svg>
