<?xml version="1.0" encoding="utf-8"?>
<!-- Generator: Adobe Illustrator 23.0.3, SVG Export Plug-In . SVG Version: 6.00 Build 0)  -->
<svg version="1.1" id="Capa_1" xmlns="http://www.w3.org/2000/svg" xmlns:xlink="http://www.w3.org/1999/xlink" x="0px" y="0px"
	 viewBox="0 0 511.7 511.7" style="enable-background:new 0 0 511.7 511.7;" xml:space="preserve">
<style type="text/css">
	.st0{fill:#E95454;}
	.st1{fill:#ED6362;}
	.st2{fill:#FFDB70;}
	.st3{opacity:0.25;fill:#FFFFFF;enable-background:new    ;}
	.st4{fill:#EC9922;}
	.st5{fill:#E18B26;}
	.st6{fill:#FFFFFF;}
</style>
<polygon class="st0" points="151.3,221.2 39.5,431.7 141,422.4 190.2,511.6 301.9,301.1 "/>
<g>
	<path class="st1" d="M164.1,450.4c3.1-6.7-0.1-14.8-6.7-18.3l-6.4-3.4c-6.4-3.7-8.9-11.8-5.4-18.4c3.6-6.7,11.9-9.3,18.6-5.7
		l18.2,9.6c5.6,3,12.7,0.8,15.6-4.8l0.4-0.9c3.3-5.3,1.4-12.4-4.2-15.3l-54.4-28.9c-6.6-3.5-9.9-11.5-6.8-18.3
		c3.4-7.2,12-10,18.9-6.3l50.4,26.8c5.6,3,12.7,0.8,15.6-4.8l0.3-0.7l0.1-0.2c3.2-5.9,1-13.3-5-16.4l-28.3-15
		c-6.6-3.5-9.9-11.5-6.7-18.4c3.4-7.1,12-10,18.9-6.3l31.2,16.6c5.8,3.1,12.8,0.5,15.8-5.4c0-0.1,0-0.1,0.1-0.2c0-0.1,0-0.1,0.1-0.2
		c3.2-5.8,1.4-13-4.4-16.1l-33.7-17.9c-6.5-3.5-9.8-11.5-6.7-18.2c3.4-7.2,12-10,18.9-6.3l83.2,44.1L190.1,511.6l-30.8-56
		C161.3,454.3,163,452.7,164.1,450.4z"/>
	<polygon class="st1" points="360.4,221.2 472.1,431.7 370.6,422.4 321.5,511.6 209.8,301.1 	"/>
</g>
<path class="st0" d="M347.6,450.4c-3.1-6.7,0.1-14.8,6.7-18.3l6.4-3.4c6.4-3.7,8.9-11.8,5.4-18.4c-3.6-6.7-11.9-9.3-18.6-5.7
	l-18.2,9.6c-5.6,3-12.7,0.8-15.6-4.8l-0.4-0.9c-3.3-5.3-1.4-12.4,4.2-15.3l54.4-28.9c6.6-3.5,9.9-11.5,6.8-18.3
	c-3.4-7.2-12-10-18.9-6.3l-50.4,26.8c-5.6,3-12.7,0.8-15.6-4.8l-0.3-0.7l-0.1-0.2c-3.2-5.9-1-13.3,5-16.4l28.3-15
	c6.6-3.5,9.9-11.5,6.7-18.4c-3.4-7.1-12-10-18.9-6.3L283,321.2c-5.8,3.1-12.8,0.5-15.8-5.4c0-0.1,0-0.1-0.1-0.2s0-0.1-0.1-0.2
	c-3.2-5.8-1.4-13,4.4-16.1l33.7-17.9c6.5-3.5,9.8-11.5,6.7-18.2c-3.4-7.2-12-10-18.9-6.3l-83.2,44.1l111.8,210.6l30.8-56
	C350.4,454.3,348.6,452.7,347.6,450.4z"/>
<path class="st2" d="M442.5,186.6c0,16.1-16.2,29.8-20.2,44.6c-4.1,15.3,3,35.3-4.8,48.7c-7.9,13.6-28.8,17.4-39.8,28.5
	c-11.1,11.1-14.9,32-28.5,39.8c-13.4,7.8-33.4,0.7-48.7,4.8c-14.8,4-28.5,20.2-44.6,20.2s-29.8-16.2-44.6-20.2
	c-15.3-4.1-35.3,3-48.7-4.8c-13.6-7.9-17.4-28.8-28.5-39.8c-11.1-11.1-32-14.9-39.8-28.5c-7.8-13.4-0.7-33.4-4.8-48.7
	c-4-14.8-20.2-28.5-20.2-44.6s16.2-29.8,20.2-44.6c4.1-15.3-3-35.3,4.8-48.7c7.9-13.6,28.8-17.4,39.8-28.5
	c11.1-11.1,14.9-32,28.5-39.8c13.4-7.8,33.4-0.7,48.7-4.8C226,16.2,239.8,0,255.8,0s29.8,16.2,44.6,20.2c15.3,4.1,35.3-3,48.7,4.8
	c13.6,7.9,17.4,28.8,28.5,39.8c11.1,11.1,32,14.9,39.8,28.5c7.8,13.4,0.7,33.4,4.8,48.7C426.2,156.8,442.5,170.6,442.5,186.6z"/>
<path class="st3" d="M280.4,166.1H166.9c-8.8,0-16.1-7.2-16.1-16.1l0.1-1.1v-0.2c-0.1-9.3,7.5-16.9,16.8-16.9h78.7
	c10.4,0,19.6-7.7,20.2-18.1c0.5-10.9-8.2-20.1-19.1-20.1h-83.3c-9.2,0-16.1-7.7-16-16.9c0-0.1,0-0.1,0-0.2s0-0.1,0-0.2
	c-0.1-9.2,6.8-16.9,16-16.9h87.2c10.3,0,19.5-7.7,20.1-18c0.5-11-8.2-20.1-19.1-20.1h-45.8c-14.6,2-32-3-44.1,4
	c-13.6,7.9-17.4,28.8-28.5,39.8s-32,14.9-39.8,28.5c-7.8,13.4-0.7,33.4-4.8,48.7c-4,14.8-20.2,28.5-20.2,44.6s16.2,29.8,20.2,44.6
	c4.1,15.3-3,35.3,4.8,48.7c7.9,13.6,28.8,17.4,39.8,28.5c11.1,11.1,14.9,32,28.5,39.8c12.1,7,29.5,2,44.1,4h63
	c10.3,0,19.5-7.7,20.1-18c0.5-11-8.2-20.1-19.1-20.1l-92.2,0c-10.9,0-19.6-9.1-19.1-20.1c0.5-10.3,9.8-18.1,20.1-18.1h35.8
	c10.3-0.3,18.6-8.7,18.6-19.1c0-10.5-8.6-19.1-19.1-19.1h-54.2c-8.8,0-16.1-7.2-15.9-16.1v-1.4c-0.6-8.7,6.4-16.1,15.1-16.1h119.7
	c10.4,0,19.6-7.7,20.2-18C300,175.2,291.3,166.1,280.4,166.1z"/>
<path class="st4" d="M255.8,319.9c-73.5,0-133.3-59.8-133.3-133.3S182.3,53.3,255.8,53.3s133.3,59.8,133.3,133.3
	S329.3,319.9,255.8,319.9z"/>
<path class="st5" d="M389.1,186.6c0-70.9-55.7-128.9-125.6-132.9h-12.4c-8.2,0-15.5,6.1-16,14.3c-0.4,8.8,6.5,16,15.2,16l73.3,0
	c8.7,0,15.6,7.2,15.2,16c-0.4,8.2-7.8,14.4-16,14.4h-28.4c-8.2,0.2-14.8,6.9-14.8,15.2c0,8.4,6.8,15.2,15.2,15.2h43.1
	c7,0,12.8,5.8,12.7,12.8v1.1c0.5,6.9-5.1,12.8-12,12.8h-95.2c-8.3,0-15.6,6.1-16.1,14.3c-0.4,8.8,6.5,16,15.2,16h90.2
	c7,0,12.8,5.8,12.8,12.8l-0.1,0.9v0.2c0.1,7.4-6,13.5-13.4,13.5h-62.6c-8.3,0-15.6,6.1-16.1,14.4c-0.4,8.7,6.5,16,15.2,16h66.3
	c7.3,0,12.8,6.1,12.7,13.5c0,0.1,0,0.1,0,0.2s0,0.1,0,0.2c0.1,7.3-5.4,13.5-12.7,13.5h-69.3c-8.2,0-15.5,6.1-16,14.3
	c-0.4,8.8,6.5,16,15.2,16H283C343.5,304.5,389.1,250.8,389.1,186.6z"/>
<path class="st6" d="M343.7,158.8h-61.2l-18.9-58.2c-2.4-7.5-13-7.5-15.5,0l-18.9,58.2H168c-7.9,0-11.1,10.1-4.8,14.7l49.5,36
	l-18.9,58.2c-2.4,7.5,6.1,13.7,12.5,9.1l49.5-36l49.5,36c6.4,4.6,14.9-1.6,12.5-9.1l-18.9-58.2l49.5-36
	C354.8,168.8,351.5,158.8,343.7,158.8z"/>
</svg>
