<?xml version="1.0" encoding="utf-8"?>
<!-- Generator: Adobe Illustrator 23.0.3, SVG Export Plug-In . SVG Version: 6.00 Build 0)  -->
<svg version="1.1" id="Capa_1" xmlns="http://www.w3.org/2000/svg" xmlns:xlink="http://www.w3.org/1999/xlink" x="0px" y="0px"
	 viewBox="0 0 511.7 511.7" style="enable-background:new 0 0 511.7 511.7;" xml:space="preserve">
<style type="text/css">
	.st0{fill:#3789C9;}
	.st1{fill:#ED6362;}
	.st2{fill:#9D56E8;}
	.st3{fill:#4B9FD8;}
	.st4{fill:#E95454;}
	.st5{fill:#7B48CC;}
	.st6{fill:#FFDB70;}
	.st7{opacity:0.25;fill:#FFFFFF;enable-background:new    ;}
	.st8{fill:#EC9922;}
	.st9{fill:#E18B26;}
	.st10{fill:#428BC1;}
	.st11{fill:#F2B200;}
	.st12{fill:#42ADE2;}
	.st13{fill:#FFDD7D;}
	.st14{fill:#FFCE31;}
	.st15{fill:#FFFFFF;}
	.st16{fill:#66CAF2;}
</style>
<polygon class="st0" points="113.8,201.9 2,409.7 103.5,400.6 152.7,488.6 264.4,280.8 "/>
<g>
	<polygon class="st1" points="308.1,273.2 310.9,505.1 256.5,452.4 203.5,508.2 200.7,276.3 	"/>
	<polygon class="st2" points="400.2,204.2 511.9,412 410.4,402.8 361.3,490.9 249.6,283.1 	"/>
	<path class="st3" d="M127,429.1c3.1-6.6-0.1-14.6-6.7-18.1l-6.4-3.4c-6.4-3.7-8.9-11.7-5.4-18.2c3.6-6.6,11.9-9.2,18.6-5.6
		l18.2,9.5c5.6,3,12.7,0.8,15.6-4.7l0.4-0.9c3.3-5.2,1.4-12.2-4.2-15.1l-54.4-28.5c-6.6-3.5-9.9-11.4-6.8-18.1
		c3.4-7.1,12-9.9,18.9-6.2l50.4,26.5c5.6,3,12.7,0.8,15.6-4.7l0.3-0.7l0.1-0.2c3.2-5.8,1-13.1-5-16.2l-28.3-14.8
		c-6.6-3.5-9.9-11.4-6.7-18.2c3.4-7,12-9.9,18.9-6.2l31.2,16.4c5.8,3.1,12.8,0.5,15.8-5.3c0-0.1,0-0.1,0.1-0.2c0-0.1,0-0.1,0.1-0.2
		c3.2-5.7,1.4-12.8-4.4-15.9l-33.7-17.7c-6.5-3.5-9.8-11.4-6.7-18c3.4-7.1,12-9.9,18.9-6.2l83.2,43.5L153,489.5l-30.8-55.3
		C124.2,432.9,125.9,431.4,127,429.1z"/>
</g>
<path class="st4" d="M235.6,466c0.1-7.3,4.3-12.9,8.9-13.1l4.6-0.2c4.6-0.4,8.3-6.4,8.2-13.8c-0.1-7.5-4-13.4-8.8-13.3l-12.9,0.4
	c-4,0.1-7.3-4.9-7.3-11.2v-1c-0.4-6.2,2.8-11.6,6.6-11.7l38.6-1.2c4.7-0.2,8.8-5.7,9-13.1c0.1-7.8-3.9-14.2-8.8-14l-35.8,1.1
	c-4,0.1-7.3-4.9-7.4-11.2l0.1-0.8v-0.2c-0.1-6.6,3.2-12.1,7.5-12.2l20-0.6c4.7-0.2,8.8-5.7,9-13.2c0.1-7.8-3.9-14.2-8.8-14
	l-22.3,0.7c-4.1,0.1-7.3-5.2-7.3-11.8c0-0.1,0-0.1,0-0.2c0-0.1,0-0.1,0-0.2c-0.1-6.5,2.9-12.1,7-12.2l23.9-0.8
	c4.6-0.1,8.7-5.7,8.9-13.1c0.1-7.8-3.9-14.2-8.8-14l-59,1.9l3,235.3l33-35.6C236.1,470.8,235.6,468.5,235.6,466z"/>
<path class="st5" d="M387.4,430.4c-3.1-6.6,0.1-14.6,6.7-18.1l6.4-3.4c6.4-3.7,8.9-11.7,5.4-18.2c-3.6-6.6-11.9-9.2-18.6-5.6
	l-18.2,9.5c-5.6,3-12.7,0.8-15.6-4.7l-0.4-0.9c-3.3-5.2-1.4-12.2,4.2-15.1l54.4-28.5c6.6-3.5,9.9-11.4,6.8-18.1
	c-3.4-7.1-12-9.9-18.9-6.2l-50.4,26.5c-5.6,3-12.7,0.8-15.6-4.7l-0.3-0.7l-0.1-0.2c-3.2-5.8-1-13.1,5-16.2l28.3-14.8
	c6.6-3.5,9.9-11.4,6.7-18.2c-3.4-7-12-9.9-18.9-6.2l-31.5,16.3c-5.8,3.1-12.8,0.5-15.8-5.3c0-0.1,0-0.1-0.1-0.2s0-0.1-0.1-0.2
	c-3.2-5.7-1.4-12.8,4.4-15.9l33.7-17.7c6.5-3.5,9.8-11.4,6.7-18c-3.4-7.1-12-9.9-18.9-6.2l-83.2,43.5l111.8,208l30.8-55.3
	C390.2,434.3,388.4,432.7,387.4,430.4z"/>
<path class="st6" d="M442.5,190.6c0,15.9-16.2,29.4-20.2,44c-4.1,15.1,3,34.9-4.8,48.1c-7.9,13.4-28.8,17.2-39.8,28.1
	c-11.1,11-14.9,31.6-28.5,39.3c-13.4,7.7-33.4,0.7-48.7,4.7c-14.8,3.9-28.5,19.9-44.6,19.9s-29.8-16-44.6-19.9
	c-15.3-4-35.3,3-48.7-4.7c-13.6-7.8-17.4-28.4-28.5-39.3c-11.1-11-32-14.7-39.8-28.1c-7.8-13.2-0.7-33-4.8-48.1
	c-4-14.6-20.2-28.1-20.2-44s16.2-29.4,20.2-44c4.1-15.1-3-34.9,4.8-48.1c7.9-13.4,28.8-17.2,39.8-28.1c11.1-11,14.9-31.6,28.5-39.3
	c13.4-7.7,33.4-0.7,48.7-4.7c14.7-3.9,28.5-19.9,44.5-19.9s29.8,16,44.6,19.9c15.3,4,35.3-3,48.7,4.7c13.6,7.8,17.4,28.4,28.5,39.3
	c11.1,11,32,14.7,39.8,28.1c7.8,13.2,0.7,33,4.8,48.1C426.2,161.2,442.5,174.8,442.5,190.6z"/>
<path class="st7" d="M280.4,170.4H166.9c-8.8,0-16.1-7.1-16.1-15.9l0.1-1.1v-0.2c-0.1-9.2,7.5-16.7,16.8-16.7h78.7
	c10.4,0,19.6-7.6,20.2-17.9c0.5-10.8-8.2-19.8-19.1-19.8h-83.3c-9.2,0-16.1-7.6-16-16.7c0-0.1,0-0.1,0-0.2c0-0.1,0-0.1,0-0.2
	c-0.1-9.1,6.8-16.7,16-16.7h87.2c10.3,0,19.5-7.6,20.1-17.8c0.5-10.9-8.2-19.8-19.1-19.8h-45.8c-14.6,2-32-3-44.1,3.9
	c-13.6,7.8-17.4,28.4-28.5,39.3s-32,14.7-39.8,28.1c-7.8,13.2-0.7,33-4.8,48.1c-4,14.6-20.2,28.1-20.2,44s16.2,29.4,20.2,44
	c4.1,15.1-3,34.9,4.8,48.1c7.9,13.4,28.8,17.2,39.8,28.1c11.1,11,14.9,31.6,28.5,39.3c12.1,6.9,29.5,2,44.1,3.9h63
	c10.3,0,19.5-7.6,20.1-17.8c0.5-10.9-8.2-19.8-19.1-19.8h-92.2c-10.9,0-19.6-9-19.1-19.8c0.5-10.2,9.8-17.9,20.1-17.9h35.8
	c10.3-0.3,18.6-8.6,18.6-18.9c0-10.4-8.6-18.9-19.1-18.9h-54.2c-8.8,0-16.1-7.1-15.9-15.9v-1.4c-0.6-8.6,6.4-15.9,15.1-15.9h119.7
	c10.4,0,19.6-7.6,20.2-17.8C300,179.4,291.3,170.4,280.4,170.4z"/>
<path class="st8" d="M255.8,322.3c-73.5,0-133.3-59-133.3-131.6S182.3,59,255.8,59s133.3,59,133.3,131.6S329.3,322.3,255.8,322.3z"
	/>
<path class="st9" d="M389.1,190.6c0-70-55.7-127.3-125.6-131.2h-12.4c-8.2,0-15.5,6-16,14.1c-0.4,8.7,6.5,15.8,15.2,15.8h73.3
	c8.7,0,15.6,7.1,15.2,15.8c-0.4,8.1-7.8,14.2-16,14.2h-28.4c-8.2,0.2-14.8,6.8-14.8,15c0,8.3,6.8,15,15.2,15h43.1
	c7,0,12.8,5.7,12.7,12.6v1.1c0.5,6.8-5.1,12.6-12,12.6h-95.2c-8.3,0-15.6,6-16.1,14.1c-0.4,8.7,6.5,15.8,15.2,15.8h90.2
	c7,0,12.8,5.7,12.8,12.6l-0.1,0.9v0.2c0.1,7.3-6,13.3-13.4,13.3h-62.6c-8.3,0-15.6,6-16.1,14.2c-0.4,8.6,6.5,15.8,15.2,15.8h66.3
	c7.3,0,12.8,6,12.7,13.3c0,0.1,0,0.1,0,0.2c0,0.1,0,0.1,0,0.2c0.1,7.2-5.4,13.3-12.7,13.3h-69.3c-8.2,0-15.5,6-16,14.1
	c-0.4,8.7,6.5,15.8,15.2,15.8H283C343.5,307.1,389.1,254,389.1,190.6z"/>
<path class="st10" d="M392.2,237.4c-9.8-68.6-67.6-120.9-137.2-120.9s-127.3,52.3-137.2,120.3h274.4V237.4z"/>
<path class="st11" d="M450.7,106.7c-2.6-11.8-9.8-20.9-20.3-26.8c-4.6-2.6-9.8-3.9-15.1-4.6c-4.6-0.7-9.2,0-13.8,1.3
	c-7.9,2-15.8,5.9-23,9.2c-9.8,4.6-19,9.2-27.6,9.2V125c15.1,0,28.9-6.5,40.7-12.4c12.5-5.9,20.3-9.8,24.9-7.2c3.3,2,5.3,4.6,5.9,7.8
	c0.7,3.9,0.7,9.2-0.7,15c-1.3,6.5-4.6,13.7-8.5,22.2c-7.9,16.3-18.4,32-26.3,43.8c-2.6,4.6-5.3,8.5-7.2,11.1l-2,3.9
	c0,0.7-0.7,0.7-0.7,1.3H134.3c0-0.7-0.7-0.7-0.7-1.3l-2-3.9c-2-3.3-4.6-7.2-7.2-11.1c-7.9-11.8-18.4-27.5-26.3-43.8
	c-3.9-8.5-6.6-15.7-8.5-22.2c-1.3-6.5-2-11.8-0.7-15c0.7-3.3,2.6-5.9,5.9-7.8c4.6-2.6,12.5,0.7,24.9,7.2
	c11.8,5.9,24.9,12.4,40.7,12.4V94.9c-8.5,0-17.7-4.6-27.6-9.2c-7.2-3.9-15.1-7.2-23-9.2c-5.9-1.3-10.5-2-15.1-1.3
	c-5.3,0.7-10.5,2-15.1,4.6c-10.5,5.9-17.7,15.7-20.3,26.8c-3.3,15,0,34,11.8,57.5c8.5,17.6,19.7,34.6,28.2,47.1
	c2.6,3.9,5.3,7.8,6.6,10.5c0.7,1.3,1.3,2.6,2.6,3.9c3.9,5.9,6.6,10.5,7.9,15.7v73.9c-2,0-3.3,1.3-3.3,3.9c0,2,1.3,3.9,3.3,3.9h277.7
	c2,0,3.3-1.3,3.3-3.9c0-2-1.3-3.9-3.3-3.9V242c2-5.2,4.6-9.8,7.9-15.7c0.7-1.3,1.3-2.6,2.6-3.9c1.3-2.6,3.9-6.5,6.6-10.5
	c7.9-12.4,19-29.4,28.2-47.1C450.7,141.3,453.9,122.4,450.7,106.7"/>
<path class="st12" d="M261,134.8c3.3,10.5-13.1,26.1-36.8,34c-23.6,8.5-45.9,6.5-49.9-3.9c-3.3-10.5,13.1-26.1,36.8-34
	S257,124.3,261,134.8"/>
<path class="st13" d="M239.3,248.5h31.5v70.6h-31.5L239.3,248.5z"/>
<path class="st14" d="M293.1,248.5h31.5v70.6h-31.5V248.5z"/>
<path class="st15" d="M270.8,248.5h22.3v70.6h-22.3V248.5z"/>
<path class="st14" d="M346.9,248.5h22.3v70.6h-22.3V248.5z"/>
<path class="st11" d="M132.3,239H152v61.8h-19.7V239z"/>
<path class="st14" d="M140.8,248.5h43.3v70.6h-43.3V248.5z"/>
<g>
	<path class="st11" d="M234.2,183.5c0,8.6-15.6,30.3-15.6,30.3s-15.6-21.7-15.6-30.3c0-8.6,6.9-15.4,15.6-15.4
		S234.2,174.9,234.2,183.5"/>
	<path class="st11" d="M306.6,183.5c0,8.6-15.6,30.3-15.6,30.3s-15.6-21.7-15.6-30.3c0-8.6,6.9-15.4,15.6-15.4
		S306.6,174.9,306.6,183.5"/>
</g>
<path class="st16" d="M291.5,55.9h-73l17.4-26.9H273L291.5,55.9z"/>
<g>
	<path class="st14" d="M124.4,171.4c15.8-15,47.3-22.9,68.3-17C176.3,169.4,145.4,177.3,124.4,171.4"/>
	<path class="st14" d="M387,171.4c-21,5.9-52.5-2-68.3-17C339.7,148.5,371.2,156.4,387,171.4"/>
	<path class="st14" d="M219.6,153.8c19-11.1,51.2-11.1,70.2,0C270.8,164.9,239.3,164.9,219.6,153.8"/>
</g>
<path class="st10" d="M261.6,8.6l7.2,30.7h27.6l-21-30.7L261.6,8.6z"/>
<path class="st12" d="M261.6,8.6h-14.4l-5.9,30.7h27.6L261.6,8.6z"/>
<path class="st16" d="M247.2,8.6l-5.9,30.7h-27.6l19.7-30.7L247.2,8.6z"/>
<path class="st13" d="M120.5,229.6c44.6-3.3,89.9-3.9,134.6-3.9s89.9,0.7,134.6,3.9c-44.6,3.3-89.9,3.9-134.6,3.9
	C210.4,232.8,165.1,232.8,120.5,229.6"/>
<g>
	<path class="st10" d="M115.9,248.5h277.7v7.2H115.9V248.5z"/>
	<ellipse class="st10" cx="115.9" cy="251.8" rx="3.3" ry="3.9"/>
	<ellipse class="st10" cx="394.2" cy="251.8" rx="3.3" ry="3.9"/>
</g>
<path class="st14" d="M377.8,90.3c-2-7.2-4.6-13.7-9.2-19.6c-4.6-5.9-9.8-11.1-17.1-15c-5.3-2.6-10.5-4.6-16.4-5.2
	c-4.6-0.7-9.8,0-15.1,1.3c-8.5,2-17.1,6.5-25.6,10.5c-2,1.3-4.6,2-7.2,3.3c5.3-10.5,8.5-20.3,8.5-26.8h-82.1
	c0,6.5,3.3,16.3,8.5,26.8c-2.6-1.3-4.6-2-7.2-3.3c-8.5-3.9-17.1-8.5-25.6-10.5c-5.3-1.3-10.5-2-15.1-1.3c-5.9,0.7-11.2,2-16.4,5.2
	c-6.6,3.9-12.5,9.2-17.1,15c-3.9,5.9-7.2,12.4-9.2,19.6c-4.6,19-2,43.1,8.5,71.2c7.9,22.2,18.4,40.5,23,49.7h34.8
	c-1.3-2.6-3.3-5.2-4.6-7.8c-0.7-1.3-2-2.6-2.6-3.9c-13.8-22.2-37.4-72.6-30.2-101.3c2-7.2,5.3-12.4,11.8-15.7c2-1.3,4.6-2,10.5-0.7
	c5.9,1.3,12.5,4.6,19.7,8.5c11.2,5.9,23.6,11.8,37.4,13.7v107.9h29.5V104.1c13.8-2,26.3-7.8,38.1-13.7c7.2-3.3,13.8-7.2,19.7-8.5
	c5.9-1.3,8.5-0.7,10.5,0.7c5.9,3.3,9.8,8.5,11.8,15.7c7.2,28.8-16.4,78.4-30.2,101.3c-0.7,1.3-2,2.6-2.6,3.9c-2,2.6-3.3,5.2-4.6,7.8
	h34.8c5.3-8.5,15.1-27.5,23-49.7C379.8,133.5,382.4,109.3,377.8,90.3"/>
<path class="st11" d="M255.1,81.7c-9.8,0-18.5-4-25.5-9.7c1.7,12.6,12.2,22.3,25.5,22.3c12.7,0,23.7-9.7,25.5-22.3
	C273.6,78.3,264.9,81.7,255.1,81.7"/>
</svg>
